<?xml version="1.0" standalone="no"?>
    <svg xmlns="http://www.w3.org/2000/svg">
        <symbol viewBox="0 0 1500 270" id="wave-1">
            <path fill="#111" d="M0,128L48,112C96,96,192,64,288,90.7C384,117,480,203,576,229.3C672,256,768,224,864,208C960,192,1056,192,1152,197.3C1248,203,1344,213,1392,218.7L1440,224L1440,320L1392,320C1344,320,1248,320,1152,320C1056,320,960,320,864,320C768,320,672,320,576,320C480,320,384,320,288,320C192,320,96,320,48,320L0,320Z"></path>
        </symbol>
    </svg>