<svg viewBox="0 0 256 128">
	<g>
		<g>
			<g>
				<path fill="#0D61A8" d="M104.943,86.025c-0.017,0.488-0.049,0.991-0.112,1.525l1.96-3.6l-0.216-1.175l1.969-0.305l0.716,4.988
					l0.905-3.127c0.072-0.305,0.109-0.534,0.117-0.762c0.008-0.229-0.013-0.473-0.092-0.809l2.062-0.397
					c0.075,0.427,0.123,0.794,0.11,1.175c-0.018,0.504-0.143,1.052-0.487,1.876l-1.66,4.516h-2.456l-0.516-3.371l-1.923,3.371h-2.38
					c0.093-3.142-0.02-5.11-0.235-7.169l2.044-0.32C104.906,83.584,104.988,84.729,104.943,86.025z"/>
				<path fill="#0D61A8" d="M117.726,84.301c-0.951,0.519-1.304,0.717-2.165,1.251l-0.92,4.377h-2.123l1.5-7.246l1.878-0.32
					l-0.08,1.007c0.724-0.427,1.307-0.732,1.947-1.007L117.726,84.301z"/>
				<path fill="#0D61A8" d="M118.987,82.669l2.194-0.305l-1.586,7.566h-2.123L118.987,82.669z M119.672,79.389l2.194-0.304
					l-0.485,2.288l-2.179,0.305L119.672,79.389z"/>
				<path fill="#0D61A8" d="M125.092,84.225l-0.775,3.707c-0.018,0.077-0.035,0.153-0.037,0.199
					c-0.003,0.107,0.055,0.153,0.207,0.153c0.36,0,0.771-0.153,1.154-0.306l0.369,1.495c-0.614,0.335-1.497,0.61-2.355,0.61
					c-1.068,0-1.623-0.519-1.593-1.403c0.004-0.107,0.022-0.214,0.041-0.321l0.866-4.134h-1.084l0.36-1.724h1.085l0.361-1.785
					l2.194-0.305l-0.434,2.09h1.747l-0.481,1.724H125.092z"/>
				<path fill="#0D61A8" d="M127.619,85.155c0.36-1.708,1.151-2.807,3.471-2.807c1.385,0,2.418,0.61,2.375,1.861
					c-0.05,1.45-0.811,2.121-2.637,2.669c-0.899,0.275-0.913,0.275-1.552,0.442l-0.108,0.519c-0.055,0.275-0.033,0.519,0.358,0.519
					c0.769,0,1.896-0.381,2.905-0.823l0.354,1.525c-0.909,0.564-2.325,1.022-3.619,1.022c-1.522,0-2.146-0.671-2.103-1.938
					c0.009-0.275,0.051-0.579,0.121-0.9L127.619,85.155z M131.483,84.438c0.01-0.259-0.21-0.427-0.602-0.427
					c-0.769,0-1.01,0.442-1.137,1.052l-0.107,0.519c0.365-0.092,0.531-0.123,0.973-0.26
					C131.188,85.155,131.468,84.881,131.483,84.438z"/>
				<path fill="#0D61A8" d="M138.943,79.465l2.194-0.305l-2.239,10.77h-2.122L138.943,79.465z"/>
				<path fill="#0D61A8" d="M141.412,85.155c0.359-1.708,1.15-2.807,3.47-2.807c1.386,0,2.418,0.61,2.376,1.861
					c-0.051,1.45-0.812,2.121-2.638,2.669c-0.897,0.275-0.912,0.275-1.552,0.442l-0.107,0.519c-0.056,0.275-0.034,0.519,0.358,0.519
					c0.769,0,1.896-0.381,2.904-0.823l0.354,1.525c-0.908,0.564-2.324,1.022-3.619,1.022c-1.521,0-2.146-0.671-2.103-1.938
					c0.01-0.275,0.052-0.579,0.122-0.9L141.412,85.155z M145.276,84.438c0.01-0.259-0.21-0.427-0.603-0.427
					c-0.768,0-1.01,0.442-1.136,1.052l-0.107,0.519c0.363-0.092,0.531-0.123,0.972-0.26C144.98,85.155,145.261,84.881,145.276,84.438
					z"/>
				<path fill="#0D61A8" d="M147.433,89.595l0.462-1.586c0.55,0.198,1.176,0.381,1.974,0.381c0.708,0,0.76-0.213,0.833-0.564
					c0.07-0.335-0.134-0.519-0.946-0.961c-1.507-0.823-1.549-1.373-1.314-2.486c0.341-1.602,0.823-2.029,2.856-2.029
					c0.692,0,1.575,0.153,2.172,0.351l-0.403,1.617c-0.537-0.152-1.33-0.274-1.843-0.274c-0.632,0-0.726,0.076-0.815,0.472
					c-0.071,0.351,0.001,0.428,0.695,0.808c1.656,0.916,1.901,1.236,1.649,2.411c-0.359,1.678-0.864,2.35-3.063,2.35
					C149.013,90.083,148.07,89.884,147.433,89.595z"/>
				<path fill="#0D61A8" d="M153.517,89.595l0.462-1.586c0.549,0.198,1.176,0.381,1.974,0.381c0.707,0,0.76-0.213,0.833-0.564
					c0.071-0.335-0.134-0.519-0.947-0.961c-1.506-0.823-1.548-1.373-1.313-2.486c0.341-1.602,0.823-2.029,2.855-2.029
					c0.692,0,1.576,0.153,2.172,0.351l-0.403,1.617c-0.536-0.152-1.33-0.274-1.842-0.274c-0.632,0-0.726,0.076-0.814,0.472
					c-0.072,0.351,0,0.428,0.695,0.808c1.654,0.916,1.899,1.236,1.647,2.411c-0.357,1.678-0.863,2.35-3.062,2.35
					C155.095,90.083,154.154,89.884,153.517,89.595z"/>
				<path fill="#0D61A8" d="M159.335,91.593l1.217-1.663h-0.798l0.523-2.532h2.123l-0.575,2.715l-1.745,2.105L159.335,91.593z"/>
				<path fill="#0D61A8" d="M170.941,89.93l-0.038-0.641c-0.543,0.443-1.307,0.793-2.361,0.793c-1.597,0-1.954-0.977-1.611-2.639
					l0.416-1.999c0.362-1.77,0.86-3.097,3.946-3.097c0.227,0,0.691,0.03,0.886,0.076l0.614-2.959l2.178-0.305l-2.237,10.77H170.941z
					M169,87.703c-0.088,0.397,0.011,0.58,0.388,0.58c0.752,0,1.309-0.397,1.728-0.763l0.686-3.31
					c-0.239-0.046-0.524-0.061-0.825-0.061c-1.101,0-1.347,0.595-1.505,1.312L169,87.703z"/>
				<path fill="#0D61A8" d="M174.709,87.597c0.006-0.168,0.028-0.351,0.065-0.519l0.359-1.724c0.396-1.906,1.354-3.005,3.914-3.005
					c1.973,0,2.821,1.145,2.775,2.471c-0.006,0.168-0.027,0.351-0.063,0.534l-0.361,1.724c-0.378,1.785-1.264,3.005-3.929,3.005
					C175.604,90.083,174.663,88.954,174.709,87.597z M179.693,84.988c0.019-0.549-0.301-0.839-0.993-0.839
					c-0.799,0-1.281,0.412-1.426,1.144l-0.379,1.846c-0.02,0.107-0.039,0.213-0.041,0.305c-0.019,0.534,0.302,0.839,0.995,0.839
					c0.813,0,1.278-0.413,1.424-1.145l0.38-1.846C179.672,85.186,179.691,85.079,179.693,84.988z"/>
				<path fill="#0D61A8" d="M194.786,84.881c0.018-0.091,0.036-0.167,0.038-0.229c0.005-0.153-0.068-0.214-0.278-0.214
					c-0.392,0-1.324,0.396-1.937,0.717l-0.994,4.775h-2.108l1.049-5.049c0.017-0.091,0.036-0.167,0.037-0.229
					c0.005-0.153-0.067-0.214-0.278-0.214c-0.392,0-1.34,0.396-1.923,0.702l-0.993,4.79h-2.122l1.499-7.246l1.878-0.32l-0.043,0.824
					c1.164-0.55,2.076-0.839,2.921-0.839c0.723,0,1.087,0.32,1.233,0.87c1.138-0.656,2.155-0.87,2.998-0.87
					c0.979,0,1.32,0.564,1.287,1.51c-0.008,0.26-0.033,0.549-0.104,0.855l-1.083,5.217h-2.124L194.786,84.881z"/>
				<path fill="#0D61A8" d="M197.763,87.597c0.006-0.168,0.027-0.351,0.063-0.519l0.361-1.724c0.396-1.906,1.354-3.005,3.913-3.005
					c1.974,0,2.821,1.145,2.776,2.471c-0.006,0.168-0.028,0.351-0.064,0.534l-0.359,1.724c-0.378,1.785-1.264,3.005-3.929,3.005
					C198.657,90.083,197.717,88.954,197.763,87.597z M202.746,84.988c0.021-0.549-0.301-0.839-0.993-0.839
					c-0.799,0-1.28,0.412-1.425,1.144l-0.381,1.846c-0.019,0.107-0.037,0.213-0.04,0.305c-0.019,0.534,0.303,0.839,0.995,0.839
					c0.813,0,1.278-0.413,1.425-1.145l0.38-1.846C202.726,85.186,202.744,85.079,202.746,84.988z"/>
				<path fill="#0D61A8" d="M210.511,84.301c-0.951,0.519-1.305,0.717-2.166,1.251l-0.919,4.377h-2.124l1.501-7.246l1.877-0.32
					l-0.08,1.007c0.724-0.427,1.307-0.732,1.948-1.007L210.511,84.301z"/>
				<path fill="#0D61A8" d="M210.994,85.155c0.358-1.708,1.15-2.807,3.47-2.807c1.385,0,2.418,0.61,2.374,1.861
					c-0.049,1.45-0.81,2.121-2.638,2.669c-0.896,0.275-0.911,0.275-1.55,0.442l-0.108,0.519c-0.055,0.275-0.033,0.519,0.358,0.519
					c0.768,0,1.896-0.381,2.905-0.823l0.354,1.525c-0.909,0.564-2.325,1.022-3.619,1.022c-1.521,0-2.147-0.671-2.103-1.938
					c0.009-0.275,0.05-0.579,0.121-0.9L210.994,85.155z M214.858,84.438c0.009-0.259-0.211-0.427-0.603-0.427
					c-0.769,0-1.01,0.442-1.136,1.052l-0.108,0.519c0.365-0.092,0.531-0.123,0.973-0.26
					C214.563,85.155,214.843,84.881,214.858,84.438z"/>
				<path fill="#0D61A8" d="M217.707,87.398h2.123l-0.523,2.532h-2.123L217.707,87.398z"/>
			</g>
		</g>
		<path fill="#0D61A8" d="M23.076,46.505c-3.589,5.223-3.145,12.017-0.399,17.567c0.062,0.135,0.132,0.264,0.2,0.394
			c0.039,0.085,0.082,0.17,0.129,0.253c0.02,0.046,0.053,0.096,0.079,0.141c0.044,0.091,0.091,0.174,0.138,0.261
			c0.088,0.15,0.176,0.303,0.265,0.452c0.05,0.083,0.097,0.167,0.153,0.25c0.094,0.161,0.203,0.319,0.3,0.48
			c0.044,0.069,0.085,0.136,0.132,0.203c0.141,0.218,0.282,0.432,0.438,0.644c0,0.006,0.006,0.012,0.012,0.014
			c0.023,0.036,0.05,0.071,0.074,0.103c0.132,0.183,0.264,0.362,0.403,0.54c0.047,0.065,0.1,0.13,0.147,0.195
			c0.126,0.155,0.25,0.31,0.373,0.463c0.047,0.055,0.094,0.113,0.144,0.17c0.165,0.201,0.338,0.4,0.515,0.597
			c0,0.003,0.006,0.007,0.009,0.012c0.006,0.007,0.011,0.014,0.023,0.022c0.17,0.189,0.344,0.375,0.521,0.56
			c0.056,0.057,0.111,0.111,0.173,0.171c0.135,0.139,0.27,0.279,0.414,0.416c0.059,0.057,0.118,0.112,0.174,0.166
			c0.188,0.179,0.376,0.358,0.573,0.529c0.003,0.003,0.006,0.005,0.009,0.008c0.032,0.028,0.068,0.057,0.098,0.085
			c0.173,0.15,0.347,0.299,0.523,0.446c0.071,0.06,0.142,0.116,0.212,0.174c0.147,0.118,0.294,0.23,0.44,0.344
			c0.077,0.058,0.153,0.118,0.233,0.179c0.159,0.121,0.323,0.238,0.485,0.354c0.059,0.043,0.118,0.086,0.18,0.127
			c0.014,0.013,0.032,0.025,0.046,0.037c0.162,0.107,0.315,0.211,0.474,0.317c0.071,0.046,0.138,0.091,0.206,0.137
			c0.247,0.159,0.493,0.313,0.738,0.462c0.07,0.037,0.141,0.077,0.208,0.118c0.182,0.107,0.367,0.212,0.556,0.314
			c0.103,0.058,0.206,0.108,0.312,0.162c0.126,0.07,0.259,0.142,0.394,0.212c0.032,0.013,0.064,0.026,0.094,0.042
			c0.056,0.025,0.108,0.053,0.161,0.08c0.206,0.103,0.417,0.2,0.635,0.298c0.042,0.02,0.085,0.037,0.129,0.06
			c0.244,0.107,0.488,0.21,0.738,0.31c0.059,0.022,0.117,0.049,0.179,0.069c0.227,0.089,0.462,0.177,0.694,0.262
			c0.029,0.012,0.056,0.021,0.085,0.031c0.258,0.09,0.514,0.174,0.776,0.257c0.062,0.018,0.124,0.04,0.188,0.056
			c0.268,0.082,0.526,0.177,0.799,0.229c17.353,3.204,22.395-10.563,22.395-10.563c-4.236,5.584-11.752,7.06-18.873,5.419
			c-0.265-0.061-0.526-0.146-0.794-0.226c-0.062-0.018-0.132-0.039-0.194-0.061c-0.259-0.079-0.514-0.164-0.764-0.251
			c-0.036-0.012-0.073-0.024-0.109-0.04c-0.226-0.079-0.449-0.166-0.672-0.253c-0.062-0.026-0.127-0.049-0.188-0.073
			c-0.247-0.098-0.491-0.204-0.729-0.31c-0.054-0.019-0.098-0.042-0.148-0.062c-0.208-0.097-0.409-0.192-0.611-0.291
			c-0.061-0.026-0.117-0.057-0.179-0.087c-0.159-0.077-0.317-0.161-0.473-0.245c-0.109-0.057-0.215-0.108-0.318-0.167
			c-0.191-0.104-0.382-0.214-0.573-0.321c-0.059-0.041-0.124-0.075-0.191-0.112c-0.247-0.149-0.497-0.303-0.741-0.46
			c-0.07-0.045-0.135-0.09-0.199-0.136c-0.18-0.115-0.356-0.235-0.529-0.354c-0.056-0.04-0.112-0.082-0.171-0.124
			c-0.167-0.119-0.332-0.239-0.499-0.363c-0.071-0.057-0.145-0.113-0.221-0.169c-0.15-0.118-0.3-0.234-0.449-0.356
			c-0.065-0.055-0.132-0.109-0.198-0.163c-0.193-0.157-0.376-0.315-0.561-0.479c-0.018-0.019-0.044-0.036-0.065-0.052
			c-0.197-0.178-0.394-0.361-0.588-0.543c-0.059-0.057-0.108-0.108-0.167-0.162c-0.141-0.14-0.282-0.277-0.42-0.419
			c-0.059-0.059-0.112-0.114-0.168-0.171c-0.176-0.18-0.35-0.366-0.52-0.557c-0.009-0.008-0.018-0.016-0.026-0.026
			c-0.18-0.199-0.353-0.402-0.526-0.608c-0.048-0.055-0.092-0.111-0.139-0.165c-0.126-0.157-0.253-0.317-0.382-0.475
			c-0.041-0.061-0.088-0.119-0.135-0.178c-0.15-0.195-0.294-0.39-0.438-0.591c-3.952-5.459-5.377-12.994-2.217-19.176"/>
		<path fill="#0D61A8" d="M34.218,42.103c-2.602,3.781-2.458,8.845-0.432,12.846c0.335,0.67,0.717,1.321,1.146,1.938
			c0.388,0.566,0.817,1.236,1.337,1.69c0.183,0.208,0.379,0.411,0.583,0.615c0.05,0.051,0.1,0.1,0.153,0.153
			c0.194,0.189,0.391,0.375,0.593,0.557c0.006,0.008,0.018,0.015,0.024,0.022c0.002,0.001,0.006,0.004,0.006,0.004
			c0.226,0.203,0.455,0.395,0.693,0.582c0.056,0.041,0.106,0.085,0.162,0.125c0.235,0.186,0.477,0.365,0.72,0.541
			c0.009,0.003,0.015,0.008,0.026,0.013c0.106,0.077,0.217,0.148,0.333,0.223c0.049,0.033,0.103,0.071,0.152,0.103
			c0.179,0.118,0.356,0.228,0.539,0.336c0.026,0.013,0.053,0.028,0.079,0.042c0.153,0.093,0.314,0.186,0.476,0.27
			c0.056,0.034,0.112,0.062,0.167,0.092c0.112,0.056,0.223,0.116,0.333,0.174c0.014,0.008,0.036,0.017,0.053,0.024
			c0.229,0.114,0.461,0.22,0.691,0.326c0.056,0.022,0.103,0.042,0.156,0.064c0.188,0.082,0.379,0.163,0.567,0.235
			c0.085,0.028,0.165,0.063,0.244,0.091c0.173,0.062,0.35,0.123,0.523,0.181c0.085,0.028,0.162,0.052,0.238,0.077
			c0.247,0.079,0.497,0.181,0.758,0.222c13.394,2.25,16.492-8.2,16.492-8.2c-2.79,4.071-8.19,6.008-13.952,4.493
			c-0.259-0.067-0.511-0.142-0.759-0.223c-0.079-0.021-0.149-0.046-0.226-0.073c-0.179-0.058-0.359-0.119-0.533-0.185
			c-0.079-0.03-0.161-0.059-0.241-0.09c-0.191-0.076-0.382-0.151-0.567-0.234c-0.056-0.022-0.109-0.042-0.153-0.065
			c-0.238-0.104-0.474-0.216-0.702-0.327c-0.118-0.061-0.232-0.121-0.35-0.184c-0.071-0.036-0.139-0.07-0.2-0.103
			c-0.156-0.082-0.3-0.168-0.447-0.256c-0.035-0.019-0.07-0.037-0.106-0.059c-0.179-0.109-0.364-0.22-0.535-0.335
			c-0.059-0.034-0.108-0.073-0.164-0.108c-0.118-0.076-0.232-0.152-0.354-0.234c-0.243-0.171-0.482-0.353-0.72-0.535
			c-0.056-0.046-0.109-0.087-0.162-0.132c-2.528-2.016-4.527-4.773-5.474-7.895c-0.999-3.243-0.779-6.883,0.943-9.835"/>
		<path fill="#0D61A8" d="M43.584,38.814c-1.535,2.281-1.682,5.114-0.624,7.629c1.123,2.674,3.419,4.771,6.094,5.765
			c0.109,0.043,0.217,0.079,0.33,0.117c0.05,0.016,0.097,0.031,0.15,0.048c0.156,0.049,0.312,0.108,0.473,0.14
			c7.4,1.447,9.405-3.846,9.943-4.624c-1.761,2.563-4.715,3.178-8.341,2.287c-0.285-0.07-0.597-0.174-0.873-0.276
			c-0.353-0.127-0.703-0.273-1.043-0.436c-0.638-0.314-1.255-0.692-1.826-1.13c-3.245-2.492-5.256-7.246-3.139-11.118"/>
		<path fill="#3B3835" d="M215.037,49.498l0.291,1.242c0.082,0.355-0.141,0.643-0.501,0.643"/>
		<path fill="#3B3835" d="M191.695,47.366c-0.073,0.344-0.162,0.779-0.22,1.066l-2.562,12.138l2.693-12.787L191.695,47.366z"/>
		<polygon fill="#3B3835" points="114.985,55.489 113.571,60.561 114.985,55.49 	"/>
		<path fill="#3B3835" d="M215.328,50.74l-0.738-3.161c-0.581-2.287-2.23-3.367-5.938-3.367h-15.59c-0.359,0-0.718,0.164-0.791,0.52
			l-5.915,28.41c-0.077,0.359-0.1,0.614-0.059,0.792c0.042,0.183,0.735,0.148,1.091,0.148h5.4c0.36,0,1.017,0.028,1.207-0.05
			c0.2-0.083,0.289-0.625,0.363-0.983l1.907-9.961l2.331-11.049c0.076-0.354,0.43-0.645,0.788-0.645l15.441-0.011
			C215.185,51.383,215.41,51.094,215.328,50.74"/>
		<path fill="#3B3835" d="M237.296,39.223c-0.361,0.004-6.849,0-6.849,0c-0.358,0-0.819,0.39-1.02,0.691l-12.021,17.912
			c-0.206,0.301-0.438,0.29-0.518-0.064l-0.888-3.926c-0.076-0.356-0.435-0.646-0.8-0.646h-7.726c-0.355,0-0.57,0.301-0.476,0.652
			l3.463,12.298c0.101,0.352,0.108,0.927,0.021,1.28l-1.615,6.229c-0.086,0.353,0.136,0.459,0.5,0.459h7.628
			c0.358,0,0.729-0.105,0.816-0.459l1.617-6.316c0.088-0.353,0.337-0.832,0.552-1.125L239.6,39.856
			c0.222-0.289,0.189-0.635-0.169-0.635L237.296,39.223z"/>
		<path fill="#3B3835" d="M156.853,44.236h-6.972c-0.357,0-0.721,0.126-0.792,0.484l-2.305,10.922L144.489,66.1
			c-0.074,0.354-0.43,0.331-0.788,0.331h-4.583c-4.533,0-4.011-2.901-3.078-7.25c0.012-0.043,2.907-14.46,2.907-14.46
			c0.064-0.355-0.171-0.484-0.526-0.484h-6.644c-0.358,0-0.715,0.128-0.785,0.484l-2.673,14.45
			c-1.333,7.813-1.372,14.688,7.574,14.915c0.146,0.005,14.124,0,14.124,0c0.362,0,0.717-0.12,0.794-0.472l3.034-14.492l3.022-14.551
			C156.868,44.569,156.975,44.236,156.853,44.236z"/>
		<path fill="#3B3835" d="M87.399,44.212h-7.476c-0.359,0-0.72,0.086-0.8,0.443l-1.35,5.912c-0.077,0.35,0.153,0.629,0.515,0.629
			h7.158c0.362,0,0.72-0.33,0.797-0.683l1.299-5.956C87.542,44.558,87.646,44.212,87.399,44.212z"/>
		<path fill="#3B3835" d="M77.803,53.19c-0.355,0-0.72,0.288-0.797,0.644l-1.008,4.509l-2.249,10.414c0,0-1.196,5.535-1.311,5.882
			c0,0-1.007,3.997-3.415,3.836c-1.12-0.075-2.4-0.334-2.4-0.334H66.62c-0.673-0.206-0.721,0.501-0.803,0.855l-1.484,6.488
			c-0.085,0.355,0.145,0.675,0.5,0.679c0,0,3.219,0.459,5.492,0.459h0.373c5.615,0,8.581-3.343,10.477-12.423l2.223-10.509
			l2.084-9.778c0.077-0.356-0.135-0.687-0.494-0.687"/>
		<path fill="#3B3835" d="M174.497,44.168c-12.575,0-15.577,7.873-17.246,15.675c-1.672,7.955-1.528,14.244,11.483,14.244h0.47
			c5.162,0,11.435,0,11.435,0c0.352-0.006,0.704-0.333,0.775-0.686l1.279-5.046c0.074-0.358-0.165-0.463-0.52-0.463h-11.703
			c-4.239,0-5.757-1.322-5.609-4.292c-0.003-0.338,0.379-1.198,0.738-1.198h18.026c0.792-0.005,0.817-0.474,0.817-0.474
			C186.277,53.539,186.397,44.168,174.497,44.168 M177.813,56.667c0,0.395-1.23,0.319-1.23,0.319l-9.804-0.072
			c-0.339,0-0.436-0.48-0.459-0.825c-0.001-0.012,0.023-0.413,0.053-0.512c0.758-2.662,3.019-4.183,6.604-4.183
			c4.033,0,4.894,2.026,4.894,4.272"/>
		<path fill="#3B3835" d="M120.147,65.877c0,0,3.521-8.666,4.321-13.674c1.094-6.703-2.217-16.422-15.017-16.422
			c-12.722,0-18.243,9.279-20.357,19.368c-2.105,10.162,0.651,19.009,13.304,18.938l19.312-0.012c0.356-0.001,0.727-0.292,0.818-0.64
			l1.628-6.279c0.089-0.354-0.132-0.642-0.494-0.643l-1.555-0.012l-1.556-0.007c-0.305-0.003-0.482-0.205-0.441-0.471
			C120.118,65.975,120.124,65.927,120.147,65.877 M113.503,60.561l-1.449,5.017c-0.1,0.353-0.509,0.587-0.868,0.587h-7.476
			c-5.674,0-7.053-4.44-5.674-11.067c1.385-6.773,4.127-10.964,9.707-11.388c7.629-0.583,9.19,4.874,7.34,11.146L113.503,60.561z"/>
	</g>
</svg>
