<?xml version="1.0" standalone="no"?>
<svg xmlns="http://www.w3.org/2000/svg" viewBox="0 0 1440 318">
    <defs>
        <linearGradient id="grad1" x1="0%" y1="100%" x2="0%" y2="0%">
            <stop offset="20%" style="stop-color:#4facfe;stop-opacity:1" />
            <stop offset="80%" style="stop-color:#00f2fe;stop-opacity:1" />
        </linearGradient>
    </defs>
    <path fill="url(#grad1)" fill-opacity="1" d="M0,0L60,10.7C120,21,240,43,360,74.7C480,107,600,149,720,186.7C840,224,960,256,1080,240C1200,224,1320,160,1380,128L1440,96L1440,320L1380,320C1320,320,1200,320,1080,320C960,320,840,320,720,320C600,320,480,320,360,320C240,320,120,320,60,320L0,320Z"></path>
</svg>